<svg width="74" height="70" viewBox="0 0 74 70" fill="none" xmlns="http://www.w3.org/2000/svg"><path opacity=".24" d="M51.647 27.807 5.598 30.569c-1.987.12-3.502 1.843-3.384 3.85l1.762 29.948c.118 2.006 1.825 3.536 3.812 3.417l46.049-2.762c1.987-.12 3.503-1.843 3.385-3.85l-1.763-29.948c-.118-2.006-1.824-3.537-3.812-3.417Z" fill="#017ACC"/><path d="M60.14 8.058 9.789 18.337c-2.016.412-3.32 2.396-2.913 4.432l6.73 33.61c.407 2.036 2.373 3.353 4.39 2.941l50.352-10.279c2.017-.411 3.321-2.396 2.913-4.432l-6.73-33.61c-.407-2.036-2.373-3.353-4.39-2.941Z" fill="#fff" stroke="#017ACC" stroke-width="1.56" stroke-linecap="round" stroke-linejoin="round"/><path d="m8.488 30.834 57.658-11.772M64.91 43.65l-4.74 7.066-2.35-11.71 11.829-2.414-4.74 7.057Z" stroke="#017ACC" stroke-width="1.48" stroke-linecap="round" stroke-linejoin="round"/><path opacity=".24" d="M9.24 18.45 60.687 7.949c1.713-.35 3.39.767 3.739 2.506l1.723 8.606L8.493 30.83l-1.724-8.606c-.346-1.73.76-3.424 2.482-3.776l-.01.003Z" fill="#017ACC"/><path d="m17.819 8.322-.689.14a1.956 1.956 0 0 0-1.515 2.307l2.457 12.273a1.939 1.939 0 0 0 2.284 1.53l.689-.14a1.956 1.956 0 0 0 1.515-2.306L20.103 9.851a1.939 1.939 0 0 0-2.284-1.53Zm29.09-5.934-.69.14a1.956 1.956 0 0 0-1.515 2.306l2.458 12.273a1.939 1.939 0 0 0 2.284 1.53l.688-.14a1.956 1.956 0 0 0 1.516-2.306L49.192 3.918a1.939 1.939 0 0 0-2.283-1.53Z" fill="#fff" stroke="#017ACC" stroke-width="1.76" stroke-linecap="round" stroke-linejoin="round"/><path opacity=".24" d="m64.91 43.65-4.74 7.066-2.35-11.71 11.829-2.414-4.74 7.057Z" fill="#017ACC"/><path d="m19.453 37.241 37.575-7.928M21.633 47.816l32.735-6.904m-9.712-14.377 4.248 20.53m-19.22-17.367 4.247 20.531" stroke="#017ACC" stroke-width="1.5" stroke-linecap="round" stroke-linejoin="round"/><path d="m22.805 44.967 4.599-7.178m-5.854 1.267 7.11 4.644" stroke="#017ACC" stroke-width="1.56" stroke-linecap="round" stroke-linejoin="round"/></svg>