<svg width="63" height="67" viewBox="0 0 63 67" fill="none" xmlns="http://www.w3.org/2000/svg"><g opacity=".35" filter="url(#a)"><ellipse cx="37.269" cy="41.24" rx="22.73" ry="22.759" fill="#017ACC"/></g><path fill-rule="evenodd" clip-rule="evenodd" d="M45.896 40.456c0 6.502-5.264 11.772-11.756 11.772-6.493 0-11.757-5.27-11.757-11.772 0-6.502 5.264-11.772 11.757-11.772 6.492 0 11.756 5.27 11.756 11.772Z" fill="#fff"/><path clip-rule="evenodd" d="M43.545 41.241c0 6.502-5.265 11.772-11.757 11.772-6.493 0-11.757-5.27-11.757-11.772 0-6.502 5.264-11.773 11.757-11.773 6.492 0 11.757 5.27 11.757 11.773Z" stroke="#017ACC" stroke-width="1.943" stroke-linecap="round" stroke-linejoin="round"/><path d="M31.79 34.177v14.127m-7.06-7.064h13.325" stroke="#017ACC" stroke-width="1.943" stroke-linecap="round" stroke-linejoin="round"/><path fill-rule="evenodd" clip-rule="evenodd" d="M16.11 23.975c6.06 0 10.973-4.92 10.973-10.988C27.083 6.918 22.17 2 16.11 2 10.05 2 5.137 6.919 5.137 12.987A10.975 10.975 0 0 0 16.11 23.974Zm0-19.782c4.852 0 8.783 3.937 8.783 8.794 0 4.857-3.932 8.794-8.782 8.794a8.785 8.785 0 0 1-8.783-8.794c0-4.857 3.932-8.794 8.783-8.794Z" fill="#017ACC"/><path d="M3.651 16.702a1.107 1.107 0 1 1 .497-2.16c.058.014.2.039.413.066 2.432.307 5.291-.157 8.015-2.015 2.479-1.69 4.555-4.394 6.083-8.316.222-.57.867-.853 1.441-.632.574.22.859.862.637 1.433-1.686 4.325-4.04 7.39-6.9 9.341-3.232 2.205-6.628 2.756-9.557 2.386a6.921 6.921 0 0 1-.629-.103ZM25.006 30.9c-2.054-3.702-4.834-5.771-8.506-5.553-8.44.5-12.338 5.37-12.338 15.608 0 .591-.484 1.07-1.08 1.07A1.076 1.076 0 0 1 2 40.955C2 29.656 6.7 23.783 16.37 23.21c4.648-.276 8.115 2.305 10.531 6.66.781 1.408-1.19 2.3-1.895 1.03Z" fill="#017ACC"/><defs><filter id="a" x="12.208" y="16.15" width="50.124" height="50.182" filterUnits="userSpaceOnUse" color-interpolation-filters="sRGB"><feFlood flood-opacity="0" result="BackgroundImageFix"/><feColorMatrix in="SourceAlpha" values="0 0 0 0 0 0 0 0 0 0 0 0 0 0 0 0 0 0 127 0" result="hardAlpha"/><feOffset/><feGaussianBlur stdDeviation="1.166"/><feColorMatrix values="0 0 0 0 0 0 0 0 0 0 0 0 0 0 0 0 0 0 0.2 0"/><feBlend in2="BackgroundImageFix" result="effect1_dropShadow_1428_3780"/><feBlend in="SourceGraphic" in2="effect1_dropShadow_1428_3780" result="shape"/></filter></defs></svg>